<svg width="1200" height="900" viewBox="0 0 1200 900" fill="none" xmlns="http://www.w3.org/2000/svg">
  <defs>
    <linearGradient id="sky" x1="600" y1="0" x2="600" y2="900" gradientUnits="userSpaceOnUse">
      <stop stop-color="#D9EEFF"/>
      <stop offset="1" stop-color="#9FC6EA"/>
    </linearGradient>
    <linearGradient id="building" x1="600" y1="170" x2="600" y2="770" gradientUnits="userSpaceOnUse">
      <stop stop-color="#F8FBFF"/>
      <stop offset="1" stop-color="#D4E3F3"/>
    </linearGradient>
    <linearGradient id="glass" x1="600" y1="258" x2="600" y2="740" gradientUnits="userSpaceOnUse">
      <stop stop-color="#8BB4DB"/>
      <stop offset="1" stop-color="#4F85BA"/>
    </linearGradient>
    <linearGradient id="ground" x1="600" y1="720" x2="600" y2="900" gradientUnits="userSpaceOnUse">
      <stop stop-color="#7CA47B"/>
      <stop offset="1" stop-color="#50744F"/>
    </linearGradient>
  </defs>

  <rect width="1200" height="900" fill="url(#sky)"/>
  <circle cx="212" cy="158" r="68" fill="#FFF8C9" opacity="0.9"/>
  <ellipse cx="944" cy="178" rx="146" ry="40" fill="#FFFFFF" opacity="0.46"/>
  <ellipse cx="852" cy="140" rx="96" ry="28" fill="#FFFFFF" opacity="0.5"/>
  <ellipse cx="208" cy="234" rx="140" ry="36" fill="#FFFFFF" opacity="0.38"/>

  <rect y="720" width="1200" height="180" fill="url(#ground)"/>

  <rect x="214" y="212" width="772" height="558" rx="34" fill="url(#building)"/>
  <rect x="260" y="258" width="680" height="428" rx="26" fill="url(#glass)"/>

  <rect x="552" y="526" width="98" height="244" fill="#E1ECF6"/>
  <rect x="562" y="540" width="78" height="230" fill="#D2E2F0"/>

  <rect x="286" y="290" width="182" height="22" rx="11" fill="#C4D8EA" opacity="0.7"/>
  <rect x="732" y="290" width="182" height="22" rx="11" fill="#C4D8EA" opacity="0.7"/>

  <g opacity="0.94">
    <rect x="290" y="334" width="150" height="74" rx="12" fill="#DCEAF7"/>
    <rect x="470" y="334" width="150" height="74" rx="12" fill="#DCEAF7"/>
    <rect x="650" y="334" width="150" height="74" rx="12" fill="#DCEAF7"/>
    <rect x="830" y="334" width="84" height="74" rx="12" fill="#DCEAF7"/>

    <rect x="290" y="428" width="150" height="74" rx="12" fill="#D0E2F3"/>
    <rect x="470" y="428" width="150" height="74" rx="12" fill="#D0E2F3"/>
    <rect x="650" y="428" width="150" height="74" rx="12" fill="#D0E2F3"/>
    <rect x="830" y="428" width="84" height="74" rx="12" fill="#D0E2F3"/>

    <rect x="290" y="522" width="150" height="74" rx="12" fill="#C6DCEE"/>
    <rect x="470" y="522" width="150" height="74" rx="12" fill="#C6DCEE"/>
    <rect x="650" y="522" width="150" height="74" rx="12" fill="#C6DCEE"/>
    <rect x="830" y="522" width="84" height="74" rx="12" fill="#C6DCEE"/>
  </g>

  <rect x="524" y="196" width="152" height="70" rx="20" fill="#0B3D91"/>
  <rect x="594" y="210" width="12" height="40" rx="6" fill="#F8FAFC"/>
  <rect x="580" y="224" width="40" height="12" rx="6" fill="#F8FAFC"/>

  <rect x="286" y="622" width="628" height="118" rx="18" fill="#EEF5FC"/>
  <rect x="306" y="642" width="588" height="78" rx="10" fill="#C6DCEF"/>

  <path d="M194 770H1006" stroke="#436A8F" stroke-width="6" stroke-linecap="round"/>
  <rect x="166" y="758" width="26" height="58" rx="8" fill="#3A5F7E"/>
  <rect x="1006" y="758" width="26" height="58" rx="8" fill="#3A5F7E"/>

  <circle cx="126" cy="782" r="18" fill="#2F5A32"/>
  <circle cx="1080" cy="782" r="18" fill="#2F5A32"/>

  <text x="600" y="690" text-anchor="middle" fill="#0A2D64" font-size="34" font-family="Verdana, sans-serif" font-weight="700">
    K.R. Memorial Hospital
  </text>
</svg>
